<svg
  version="1.0"
  xmlns="http://www.w3.org/2000/svg"
  width="700.000000pt"
  height="700.000000pt"
  viewBox="0 0 700.000000 700.000000"
  preserveAspectRatio="xMidYMid meet"
>
  <metadata>
    Created by potrace 1.12, written by Peter Selinger 2001-2015
  </metadata>
  <g
    transform="translate(0.000000,700.000000) scale(0.100000,-0.100000)"
    fill="#e08524"
    stroke="none"
  >
    <path
      d="M2169 6976 c-394 -106 -598 -433 -576 -924 18 -400 174 -908 400
-1300 l59 -103 -119 -122 c-182 -187 -302 -358 -414 -592 -248 -518 -276
-1150 -73 -1642 117 -283 334 -540 606 -716 384 -248 862 -370 1448 -370 297
0 531 26 778 88 782 194 1277 691 1388 1394 21 138 29 395 15 526 -44 408
-190 782 -434 1109 -34 44 -115 136 -180 203 l-119 122 59 103 c226 392 382
900 400 1300 22 499 -190 830 -595 928 -316 77 -605 -74 -810 -423 -179 -305
-318 -837 -345 -1317 l-2 -45 -155 0 -155 0 -2 45 c-12 217 -53 482 -110 705
-145 571 -374 912 -688 1023 -104 36 -259 40 -376 8z m287 -370 c104 -48 190
-152 273 -327 92 -192 180 -506 215 -759 9 -63 19 -133 21 -154 3 -22 6 -125
5 -230 0 -220 10 -256 83 -304 48 -32 94 -34 310 -14 110 10 164 10 275 0 215
-20 261 -18 309 14 73 48 83 84 83 304 -1 105 2 208 5 230 2 21 12 91 21 154
35 253 123 567 215 759 84 178 170 280 276 328 48 22 65 25 132 21 175 -11
306 -132 347 -323 26 -116 16 -348 -22 -525 -79 -372 -236 -753 -407 -989 -69
-97 -91 -150 -82 -200 12 -62 33 -88 148 -185 429 -362 657 -849 657 -1404 0
-219 -28 -380 -96 -552 -219 -552 -862 -880 -1724 -880 -605 0 -1113 163
-1433 460 -262 243 -387 557 -387 972 0 555 228 1042 657 1404 115 97 136 123
148 185 9 50 -13 103 -82 200 -171 236 -328 617 -407 989 -38 177 -48 409 -22
525 34 159 133 272 276 316 55 17 153 10 206 -15z"
    ></path>
    <path
      d="M2135 3405 c-106 -54 -138 -195 -63 -281 42 -47 77 -64 138 -64 57 0
93 15 132 57 109 115 26 303 -134 303 -24 0 -56 -7 -73 -15z"
    ></path>
    <path
      d="M4715 3406 c-63 -28 -105 -94 -105 -166 0 -70 39 -133 102 -166 35
-18 121 -18 157 0 169 88 108 347 -81 346 -23 -1 -56 -7 -73 -14z"
    ></path>
    <path
      d="M3169 3138 c-81 -63 -102 -152 -54 -234 31 -53 81 -85 148 -93 l52
-6 5 -50 c7 -72 42 -122 104 -151 64 -30 90 -30 146 -1 63 32 101 83 108 149
l7 53 53 7 c66 7 117 45 150 109 42 80 11 175 -72 224 l-43 25 -281 0 -280 0
-43 -32z"
    ></path>
    <path
      d="M2534 1132 c-41 -26 -72 -66 -85 -111 -6 -23 -9 -183 -7 -461 3 -480
3 -476 81 -528 33 -22 52 -27 101 -27 57 1 83 11 371 142 171 77 350 159 399
182 49 22 97 41 106 41 9 0 57 -19 106 -41 49 -23 229 -105 399 -182 288 -131
314 -141 371 -142 49 0 68 5 101 27 78 52 78 47 81 533 3 480 2 486 -64 544
-77 68 -133 59 -404 -64 -118 -53 -299 -135 -402 -182 l-188 -85 -187 85
c-104 47 -285 129 -403 183 -187 84 -223 98 -280 101 -52 3 -71 0 -96 -15z
m399 -499 c59 -27 106 -52 104 -56 -1 -5 -43 -26 -92 -49 -152 -68 -135 -74
-135 47 0 58 3 105 8 105 4 0 55 -21 115 -47z m1257 -58 c0 -121 17 -115 -135
-47 -49 23 -91 44 -92 49 -3 8 191 100 215 102 9 1 12 -26 12 -104z"
    ></path>
  </g>
</svg>
