<?xml version="1.0" standalone="no"?>
<!DOCTYPE svg PUBLIC "-//W3C//DTD SVG 20010904//EN"
 "http://www.w3.org/TR/2001/REC-SVG-20010904/DTD/svg10.dtd">
<svg version="1.0" xmlns="http://www.w3.org/2000/svg"
 width="512.000000pt" height="512.000000pt" viewBox="0 0 512.000000 512.000000"
 preserveAspectRatio="xMidYMid meet">
<metadata>
Created by potrace 1.11, written by Peter Selinger 2001-2013
</metadata>
<g transform="translate(0.000000,512.000000) scale(0.100000,-0.100000)"
fill="#000000" stroke="none">
<path d="M1596 5104 c-304 -74 -467 -357 -426 -741 31 -291 143 -637 288 -885
l46 -81 -55 -51 c-226 -210 -390 -508 -460 -836 -26 -123 -36 -376 -20 -491
54 -381 221 -653 529 -861 184 -124 429 -211 717 -254 167 -26 523 -26 690 0
549 82 932 322 1120 701 67 137 90 207 117 360 26 153 21 393 -12 550 -68 322
-234 622 -459 831 l-55 51 46 81 c182 313 314 791 292 1062 -15 187 -67 316
-173 421 -192 192 -481 210 -683 42 -220 -182 -395 -663 -421 -1161 l-2 -44
-115 0 -115 0 -2 44 c-6 100 -27 261 -49 373 -131 655 -423 980 -798 889z
m211 -275 c188 -91 362 -594 367 -1061 2 -186 7 -202 76 -242 29 -17 39 -18
125 -7 119 14 251 14 370 0 86 -11 96 -10 125 7 69 40 74 56 76 242 5 471 179
970 370 1062 37 18 57 22 108 18 135 -11 223 -96 255 -246 54 -258 -103 -801
-323 -1111 -84 -119 -75 -156 69 -281 304 -262 466 -614 466 -1009 0 -127 -10
-215 -35 -306 -94 -343 -372 -584 -791 -688 -176 -44 -256 -52 -505 -52 -249
0 -329 8 -505 52 -419 104 -697 345 -791 688 -25 91 -35 179 -35 306 0 395
162 747 466 1009 144 125 153 162 69 281 -149 211 -276 537 -320 824 -45 292
23 473 196 526 49 15 123 9 167 -12z"/>
<path d="M1549 2483 c-80 -49 -82 -175 -4 -223 62 -39 148 -19 185 43 53 86
-12 197 -115 197 -22 0 -52 -8 -66 -17z"/>
<path d="M3432 2480 c-59 -36 -78 -118 -42 -177 52 -87 193 -81 231 9 51 124
-76 237 -189 168z"/>
<path d="M2325 2300 c-36 -24 -65 -74 -65 -113 0 -65 57 -123 126 -129 38 -3
39 -4 42 -42 2 -22 12 -53 24 -68 72 -102 220 -60 238 67 5 38 7 40 45 45 52
8 89 33 109 75 21 43 20 60 -4 110 -34 71 -50 75 -282 75 -185 0 -206 -2 -233
-20z"/>
<path d="M1829 801 l-39 -39 0 -333 c0 -314 1 -336 20 -366 25 -42 73 -67 119
-60 20 2 167 64 327 136 160 72 297 131 304 131 7 0 144 -59 304 -131 160 -72
307 -134 327 -136 46 -7 94 18 119 60 19 30 20 52 20 366 l0 333 -39 39 c-64
64 -78 61 -429 -97 l-302 -135 -302 135 c-351 158 -365 161 -429 97z m334
-346 l72 -33 -70 -32 c-127 -58 -115 -61 -115 31 0 93 -9 90 113 34z m907 -35
c0 -78 0 -79 -22 -71 -59 23 -160 72 -157 75 6 6 163 75 172 76 4 0 7 -36 7
-80z"/>
</g>
</svg>
